<svg xmlns="http://www.w3.org/2000/svg" xmlns:xlink="http://www.w3.org/1999/xlink" width="500" zoomAndPan="magnify" viewBox="0 0 375 374.999991" height="500" preserveAspectRatio="xMidYMid meet" version="1.0"><defs><g/><clipPath id="f3fa1c0ce6"><path d="M 10.175781 24.867188 L 364.925781 24.867188 L 364.925781 210.867188 L 10.175781 210.867188 Z M 10.175781 24.867188 " clip-rule="nonzero"/></clipPath><clipPath id="d41d3afbe7"><path d="M 130 118 L 216 118 L 216 204 L 130 204 Z M 130 118 " clip-rule="nonzero"/></clipPath><clipPath id="5bcd6ef405"><path d="M 123.433594 159.878906 L 234.804688 48.507812 L 348.824219 162.527344 L 237.453125 273.898438 Z M 123.433594 159.878906 " clip-rule="nonzero"/></clipPath><clipPath id="01830f1596"><path d="M 123.433594 159.878906 L 234.804688 48.507812 L 348.824219 162.527344 L 237.453125 273.898438 Z M 123.433594 159.878906 " clip-rule="nonzero"/></clipPath><clipPath id="5bd29b1f60"><path d="M 194 181 L 279 181 L 279 267 L 194 267 Z M 194 181 " clip-rule="nonzero"/></clipPath><clipPath id="2ab468bb22"><path d="M 123.433594 159.878906 L 234.804688 48.507812 L 348.824219 162.527344 L 237.453125 273.898438 Z M 123.433594 159.878906 " clip-rule="nonzero"/></clipPath><clipPath id="bd98f8cd4a"><path d="M 123.433594 159.878906 L 234.804688 48.507812 L 348.824219 162.527344 L 237.453125 273.898438 Z M 123.433594 159.878906 " clip-rule="nonzero"/></clipPath><clipPath id="2486b7c093"><path d="M 256 119 L 342 119 L 342 204 L 256 204 Z M 256 119 " clip-rule="nonzero"/></clipPath><clipPath id="91fc570b09"><path d="M 123.433594 159.878906 L 234.804688 48.507812 L 348.824219 162.527344 L 237.453125 273.898438 Z M 123.433594 159.878906 " clip-rule="nonzero"/></clipPath><clipPath id="c876ad7c0a"><path d="M 123.433594 159.878906 L 234.804688 48.507812 L 348.824219 162.527344 L 237.453125 273.898438 Z M 123.433594 159.878906 " clip-rule="nonzero"/></clipPath><clipPath id="3fac7e20a0"><path d="M 193 56 L 278 56 L 278 141 L 193 141 Z M 193 56 " clip-rule="nonzero"/></clipPath><clipPath id="bd6193fc61"><path d="M 123.433594 159.878906 L 234.804688 48.507812 L 348.824219 162.527344 L 237.453125 273.898438 Z M 123.433594 159.878906 " clip-rule="nonzero"/></clipPath><clipPath id="c269d7fe35"><path d="M 123.433594 159.878906 L 234.804688 48.507812 L 348.824219 162.527344 L 237.453125 273.898438 Z M 123.433594 159.878906 " clip-rule="nonzero"/></clipPath></defs><rect x="-37.5" width="450" fill="#ffffff" y="-37.499999" height="449.999989" fill-opacity="1"/><g clip-path="url(#f3fa1c0ce6)"><path fill="#ffffff" d="M 336.292969 245.605469 L 36.136719 245.550781 C 26.078125 245.550781 16.757812 240.863281 12.230469 233.3125 C 8.246094 226.679688 12.304688 220.199219 16.925781 215.195312 C 23.039062 211.773438 29.273438 209.859375 36.636719 208.886719 C 39.265625 134.652344 92.414062 71.792969 167.363281 60.476562 C 159.902344 50.75 159.839844 39.652344 168.804688 31.9375 C 180.066406 22.238281 197.050781 22.59375 208.195312 32.558594 C 216.753906 40.207031 216.453125 51.242188 209.191406 60.628906 C 283.457031 72.21875 337.292969 135.210938 338.859375 209.324219 C 347.535156 209.691406 355.730469 211.941406 360.914062 218.191406 C 366.335938 224.734375 365.429688 233.445312 358.269531 238.453125 C 352.792969 242.28125 345.277344 245.613281 336.300781 245.613281 Z M 199.710938 59.714844 C 204.027344 55.222656 208.792969 49.441406 206.46875 43.613281 C 203.683594 36.628906 195.285156 33.371094 188.917969 33.285156 C 182.152344 33.203125 175.113281 35.589844 170.804688 41.585938 C 167.304688 46.453125 170.441406 58.664062 177.171875 58.902344 Z M 330.835938 209.421875 C 330.203125 192.007812 327.988281 177.8125 322.5 163.152344 C 299.074219 98.472656 234.121094 57.707031 165.554688 68.816406 C 96.691406 79.976562 46.1875 140.542969 44.914062 209.277344 L 330.839844 209.417969 Z M 339.53125 237.398438 C 346.621094 237.382812 356.660156 232.480469 356.234375 226.65625 C 355.765625 220.21875 345.351562 217.226562 338.71875 217.226562 L 33.242188 217.296875 C 27.042969 217.296875 18.105469 222.164062 18.972656 228.113281 C 19.90625 234.535156 29.722656 237.578125 35.710938 237.59375 L 120.613281 237.769531 Z M 339.53125 237.398438 " fill-opacity="1" fill-rule="nonzero"/></g><path fill="#ff5f07" d="M 330.835938 209.421875 L 44.90625 209.285156 C 46.1875 140.542969 96.683594 79.976562 165.550781 68.824219 C 234.121094 57.714844 299.066406 98.476562 322.492188 163.160156 C 327.980469 177.816406 330.199219 192.015625 330.828125 209.429688 Z M 113.527344 118.210938 C 114.722656 117.257812 115.449219 113.722656 114.765625 112.464844 C 114.078125 111.207031 110.011719 111.101562 108.832031 111.996094 C 66.875 143.910156 56.199219 198.542969 65.582031 196.589844 C 75.761719 194.476562 66.464844 155.644531 113.53125 118.203125 Z M 113.527344 118.210938 " fill-opacity="1" fill-rule="nonzero"/><path fill="#ff5f07" d="M 199.710938 59.714844 L 177.171875 58.902344 C 170.441406 58.65625 167.304688 46.453125 170.804688 41.585938 C 175.113281 35.589844 182.144531 33.203125 188.917969 33.285156 C 195.285156 33.363281 203.683594 36.625 206.46875 43.613281 C 208.792969 49.441406 204.027344 55.222656 199.710938 59.714844 Z M 199.710938 59.714844 " fill-opacity="1" fill-rule="nonzero"/><path fill="#ffffff" d="M 113.527344 118.210938 C 66.457031 155.652344 75.753906 194.484375 65.574219 196.597656 C 56.199219 198.542969 66.875 143.910156 108.824219 112.003906 C 110.007812 111.101562 114.070312 111.210938 114.757812 112.472656 C 115.441406 113.730469 114.714844 117.265625 113.519531 118.214844 Z M 113.527344 118.210938 " fill-opacity="1" fill-rule="nonzero"/><path stroke-linecap="butt" transform="matrix(0.75, 0, 0, 0.75, 44.460866, 215.919859)" fill="none" stroke-linejoin="miter" d="M 0.0000958928 5.497479 L 380.489704 5.497479 " stroke="#ff5f07" stroke-width="11" stroke-opacity="1" stroke-miterlimit="4"/><g clip-path="url(#d41d3afbe7)"><g clip-path="url(#5bcd6ef405)"><g clip-path="url(#01830f1596)"><path fill="#ffffff" d="M 162.226562 123.210938 L 135.515625 149.921875 C 134.796875 150.644531 134.152344 151.429688 133.585938 152.277344 C 133.023438 153.125 132.542969 154.019531 132.15625 154.960938 C 131.765625 155.902344 131.472656 156.871094 131.273438 157.871094 C 131.074219 158.871094 130.976562 159.878906 130.976562 160.898438 C 130.976562 161.917969 131.074219 162.925781 131.273438 163.925781 C 131.472656 164.925781 131.765625 165.894531 132.152344 166.835938 C 132.542969 167.78125 133.019531 168.675781 133.585938 169.523438 C 134.152344 170.371094 134.792969 171.152344 135.511719 171.875 L 162.222656 198.585938 C 162.945312 199.304688 163.726562 199.945312 164.574219 200.511719 C 165.425781 201.078125 166.320312 201.554688 167.261719 201.945312 C 168.203125 202.335938 169.171875 202.628906 170.171875 202.828125 C 171.171875 203.027344 172.179688 203.125 173.199219 203.125 C 174.21875 203.125 175.226562 203.027344 176.226562 202.828125 C 177.226562 202.628906 178.199219 202.335938 179.140625 201.945312 C 180.082031 201.554688 180.976562 201.078125 181.824219 200.511719 C 182.671875 199.949219 183.457031 199.304688 184.175781 198.585938 L 210.886719 171.875 C 211.609375 171.152344 212.25 170.371094 212.816406 169.523438 C 213.378906 168.675781 213.859375 167.777344 214.246094 166.835938 C 214.636719 165.894531 214.929688 164.925781 215.128906 163.925781 C 215.328125 162.925781 215.425781 161.917969 215.425781 160.898438 C 215.425781 159.878906 215.328125 158.871094 215.128906 157.871094 C 214.929688 156.871094 214.636719 155.902344 214.246094 154.957031 C 213.855469 154.015625 213.378906 153.121094 212.8125 152.273438 C 212.246094 151.425781 211.605469 150.644531 210.886719 149.921875 L 184.175781 123.210938 C 183.457031 122.492188 182.671875 121.851562 181.824219 121.285156 C 180.976562 120.71875 180.082031 120.242188 179.140625 119.851562 C 178.199219 119.464844 177.226562 119.171875 176.226562 118.972656 C 175.230469 118.773438 174.21875 118.675781 173.199219 118.675781 C 172.183594 118.675781 171.171875 118.773438 170.171875 118.972656 C 169.175781 119.171875 168.203125 119.464844 167.261719 119.851562 C 166.320312 120.242188 165.425781 120.71875 164.578125 121.285156 C 163.730469 121.851562 162.945312 122.492188 162.226562 123.210938 Z M 205.636719 155.167969 C 206.015625 155.546875 206.351562 155.953125 206.644531 156.398438 C 206.941406 156.839844 207.1875 157.304688 207.394531 157.796875 C 207.597656 158.289062 207.75 158.796875 207.851562 159.316406 C 207.957031 159.839844 208.007812 160.367188 208.007812 160.898438 C 208.007812 161.429688 207.957031 161.957031 207.855469 162.476562 C 207.75 163 207.597656 163.507812 207.394531 164 C 207.191406 164.488281 206.941406 164.957031 206.648438 165.398438 C 206.351562 165.84375 206.015625 166.25 205.640625 166.628906 L 178.929688 193.339844 C 178.554688 193.714844 178.144531 194.050781 177.703125 194.34375 C 177.257812 194.640625 176.792969 194.890625 176.300781 195.09375 C 175.808594 195.296875 175.300781 195.449219 174.78125 195.550781 C 174.257812 195.65625 173.730469 195.707031 173.199219 195.707031 C 172.667969 195.707031 172.140625 195.65625 171.621094 195.550781 C 171.097656 195.449219 170.589844 195.292969 170.097656 195.089844 C 169.609375 194.886719 169.140625 194.640625 168.699219 194.34375 C 168.253906 194.046875 167.847656 193.714844 167.46875 193.335938 L 140.761719 166.628906 C 140.386719 166.25 140.050781 165.84375 139.753906 165.398438 C 139.460938 164.957031 139.210938 164.492188 139.007812 164 C 138.804688 163.507812 138.652344 163 138.546875 162.480469 C 138.445312 161.957031 138.390625 161.429688 138.390625 160.898438 C 138.390625 160.367188 138.445312 159.839844 138.546875 159.320312 C 138.652344 158.796875 138.804688 158.289062 139.007812 157.800781 C 139.210938 157.308594 139.460938 156.839844 139.753906 156.398438 C 140.050781 155.957031 140.386719 155.546875 140.761719 155.167969 L 167.472656 128.460938 C 167.847656 128.082031 168.257812 127.75 168.699219 127.453125 C 169.144531 127.160156 169.609375 126.910156 170.101562 126.707031 C 170.59375 126.503906 171.097656 126.347656 171.621094 126.246094 C 172.140625 126.140625 172.667969 126.089844 173.199219 126.089844 C 173.734375 126.089844 174.257812 126.140625 174.78125 126.246094 C 175.300781 126.347656 175.808594 126.503906 176.300781 126.707031 C 176.792969 126.910156 177.257812 127.160156 177.699219 127.453125 C 178.144531 127.75 178.554688 128.082031 178.929688 128.460938 Z M 205.636719 155.167969 " fill-opacity="1" fill-rule="nonzero"/></g></g></g><g clip-path="url(#5bd29b1f60)"><g clip-path="url(#2ab468bb22)"><g clip-path="url(#bd98f8cd4a)"><path fill="#ffffff" d="M 225.375 186.359375 L 198.664062 213.070312 C 197.945312 213.792969 197.300781 214.578125 196.734375 215.425781 C 196.171875 216.273438 195.691406 217.167969 195.304688 218.109375 C 194.914062 219.050781 194.621094 220.023438 194.421875 221.019531 C 194.222656 222.019531 194.125 223.03125 194.125 224.050781 C 194.125 225.070312 194.222656 226.078125 194.421875 227.078125 C 194.621094 228.078125 194.914062 229.046875 195.304688 229.988281 C 195.695312 230.929688 196.171875 231.824219 196.738281 232.671875 C 197.300781 233.519531 197.945312 234.304688 198.664062 235.027344 L 225.375 261.734375 C 226.09375 262.457031 226.878906 263.097656 227.726562 263.664062 C 228.574219 264.226562 229.46875 264.707031 230.410156 265.09375 C 231.351562 265.484375 232.324219 265.777344 233.324219 265.976562 C 234.324219 266.175781 235.332031 266.273438 236.351562 266.273438 C 237.371094 266.273438 238.378906 266.175781 239.378906 265.976562 C 240.378906 265.777344 241.347656 265.484375 242.289062 265.09375 C 243.230469 264.703125 244.125 264.226562 244.972656 263.664062 C 245.820312 263.097656 246.605469 262.453125 247.328125 261.734375 L 274.035156 235.023438 C 274.757812 234.304688 275.398438 233.519531 275.964844 232.671875 C 276.53125 231.824219 277.007812 230.929688 277.394531 229.988281 C 277.785156 229.046875 278.078125 228.074219 278.277344 227.074219 C 278.476562 226.078125 278.574219 225.066406 278.574219 224.046875 C 278.574219 223.03125 278.476562 222.019531 278.277344 221.019531 C 278.078125 220.023438 277.785156 219.050781 277.394531 218.109375 C 277.007812 217.167969 276.53125 216.273438 275.964844 215.425781 C 275.398438 214.578125 274.757812 213.792969 274.035156 213.074219 L 247.328125 186.363281 C 246.605469 185.644531 245.820312 185 244.972656 184.4375 C 244.125 183.871094 243.230469 183.394531 242.289062 183.003906 C 241.347656 182.613281 240.378906 182.320312 239.378906 182.121094 C 238.378906 181.921875 237.371094 181.824219 236.351562 181.824219 C 235.332031 181.824219 234.324219 181.921875 233.324219 182.121094 C 232.324219 182.320312 231.351562 182.613281 230.410156 183 C 229.46875 183.390625 228.574219 183.867188 227.726562 184.433594 C 226.878906 185 226.09375 185.640625 225.375 186.359375 Z M 268.789062 218.320312 C 269.164062 218.695312 269.5 219.105469 269.796875 219.546875 C 270.089844 219.992188 270.339844 220.457031 270.542969 220.949219 C 270.746094 221.441406 270.898438 221.945312 271.003906 222.46875 C 271.105469 222.988281 271.160156 223.515625 271.160156 224.046875 C 271.160156 224.582031 271.105469 225.105469 271.003906 225.628906 C 270.898438 226.148438 270.746094 226.65625 270.542969 227.148438 C 270.339844 227.640625 270.089844 228.105469 269.796875 228.550781 C 269.5 228.992188 269.164062 229.402344 268.789062 229.777344 L 242.078125 256.488281 C 241.703125 256.863281 241.292969 257.199219 240.851562 257.492188 C 240.410156 257.789062 239.941406 258.039062 239.449219 258.242188 C 238.957031 258.445312 238.453125 258.597656 237.929688 258.703125 C 237.410156 258.804688 236.882812 258.855469 236.351562 258.855469 C 235.820312 258.859375 235.292969 258.804688 234.769531 258.703125 C 234.25 258.597656 233.742188 258.445312 233.25 258.242188 C 232.757812 258.039062 232.292969 257.789062 231.847656 257.496094 C 231.40625 257.199219 230.996094 256.863281 230.621094 256.488281 L 203.910156 229.78125 C 203.535156 229.402344 203.199219 228.992188 202.90625 228.550781 C 202.609375 228.109375 202.359375 227.640625 202.15625 227.148438 C 201.953125 226.660156 201.800781 226.152344 201.699219 225.628906 C 201.59375 225.109375 201.542969 224.582031 201.542969 224.050781 C 201.542969 223.515625 201.59375 222.992188 201.695312 222.46875 C 201.800781 221.945312 201.953125 221.441406 202.15625 220.949219 C 202.359375 220.457031 202.609375 219.988281 202.90625 219.546875 C 203.199219 219.105469 203.535156 218.695312 203.910156 218.320312 L 230.621094 191.609375 C 230.996094 191.234375 231.40625 190.898438 231.847656 190.601562 C 232.292969 190.308594 232.757812 190.058594 233.25 189.855469 C 233.742188 189.652344 234.25 189.5 234.769531 189.394531 C 235.292969 189.292969 235.820312 189.238281 236.351562 189.238281 C 236.882812 189.242188 237.410156 189.292969 237.929688 189.394531 C 238.453125 189.5 238.960938 189.652344 239.453125 189.855469 C 239.941406 190.058594 240.410156 190.308594 240.851562 190.605469 C 241.292969 190.898438 241.703125 191.234375 242.082031 191.609375 Z M 268.789062 218.320312 " fill-opacity="1" fill-rule="nonzero"/></g></g></g><g clip-path="url(#2486b7c093)"><g clip-path="url(#91fc570b09)"><g clip-path="url(#c876ad7c0a)"><path fill="#ffffff" d="M 287.863281 123.871094 L 261.15625 150.578125 C 260.433594 151.300781 259.792969 152.085938 259.226562 152.933594 C 258.664062 153.78125 258.183594 154.675781 257.796875 155.617188 C 257.40625 156.558594 257.113281 157.53125 256.914062 158.53125 C 256.714844 159.527344 256.617188 160.539062 256.617188 161.558594 C 256.617188 162.578125 256.714844 163.585938 256.914062 164.585938 C 257.113281 165.585938 257.40625 166.554688 257.796875 167.496094 C 258.1875 168.4375 258.664062 169.332031 259.230469 170.179688 C 259.796875 171.027344 260.4375 171.8125 261.15625 172.535156 L 287.867188 199.242188 C 288.585938 199.960938 289.371094 200.605469 290.21875 201.171875 C 291.066406 201.734375 291.960938 202.214844 292.902344 202.601562 C 293.84375 202.992188 294.816406 203.285156 295.816406 203.484375 C 296.8125 203.683594 297.824219 203.78125 298.84375 203.78125 C 299.859375 203.78125 300.871094 203.683594 301.871094 203.484375 C 302.867188 203.285156 303.839844 202.992188 304.78125 202.601562 C 305.722656 202.214844 306.617188 201.734375 307.464844 201.171875 C 308.3125 200.605469 309.097656 199.960938 309.816406 199.242188 L 336.527344 172.53125 C 337.246094 171.8125 337.890625 171.027344 338.457031 170.179688 C 339.019531 169.332031 339.5 168.4375 339.886719 167.496094 C 340.277344 166.554688 340.570312 165.582031 340.769531 164.585938 C 340.96875 163.585938 341.066406 162.574219 341.066406 161.554688 C 341.066406 160.539062 340.96875 159.527344 340.769531 158.527344 C 340.570312 157.53125 340.277344 156.558594 339.890625 155.617188 C 339.5 154.675781 339.023438 153.78125 338.457031 152.933594 C 337.890625 152.085938 337.25 151.300781 336.53125 150.578125 L 309.820312 123.871094 C 309.097656 123.152344 308.316406 122.507812 307.464844 121.941406 C 306.617188 121.378906 305.722656 120.898438 304.78125 120.511719 C 303.839844 120.121094 302.871094 119.828125 301.871094 119.628906 C 300.871094 119.429688 299.863281 119.332031 298.84375 119.332031 C 297.824219 119.332031 296.816406 119.429688 295.816406 119.628906 C 294.816406 119.828125 293.84375 120.121094 292.902344 120.507812 C 291.960938 120.898438 291.066406 121.375 290.21875 121.941406 C 289.371094 122.507812 288.585938 123.148438 287.863281 123.871094 Z M 331.28125 155.828125 C 331.65625 156.203125 331.992188 156.613281 332.289062 157.054688 C 332.582031 157.5 332.832031 157.964844 333.035156 158.457031 C 333.238281 158.949219 333.390625 159.453125 333.496094 159.976562 C 333.597656 160.496094 333.652344 161.023438 333.652344 161.554688 C 333.652344 162.089844 333.597656 162.613281 333.496094 163.136719 C 333.390625 163.660156 333.238281 164.164062 333.035156 164.65625 C 332.832031 165.148438 332.582031 165.613281 332.289062 166.058594 C 331.992188 166.5 331.65625 166.910156 331.28125 167.285156 L 304.570312 193.996094 C 304.195312 194.371094 303.785156 194.707031 303.34375 195.003906 C 302.898438 195.296875 302.433594 195.546875 301.941406 195.75 C 301.449219 195.953125 300.945312 196.105469 300.421875 196.210938 C 299.902344 196.3125 299.375 196.363281 298.84375 196.363281 C 298.308594 196.363281 297.785156 196.3125 297.261719 196.210938 C 296.742188 196.105469 296.234375 195.953125 295.742188 195.75 C 295.25 195.546875 294.785156 195.296875 294.34375 195.003906 C 293.898438 194.707031 293.488281 194.371094 293.113281 193.996094 L 266.40625 167.285156 C 266.027344 166.910156 265.691406 166.5 265.398438 166.058594 C 265.101562 165.617188 264.855469 165.148438 264.648438 164.65625 C 264.445312 164.167969 264.292969 163.660156 264.191406 163.136719 C 264.085938 162.617188 264.035156 162.089844 264.035156 161.558594 C 264.035156 161.027344 264.085938 160.5 264.1875 159.976562 C 264.292969 159.457031 264.445312 158.949219 264.648438 158.457031 C 264.851562 157.964844 265.101562 157.5 265.394531 157.054688 C 265.691406 156.613281 266.027344 156.203125 266.402344 155.828125 L 293.113281 129.117188 C 293.488281 128.742188 293.898438 128.40625 294.339844 128.109375 C 294.785156 127.816406 295.25 127.566406 295.742188 127.363281 C 296.234375 127.160156 296.742188 127.007812 297.261719 126.902344 C 297.785156 126.800781 298.3125 126.746094 298.84375 126.75 C 299.375 126.75 299.902344 126.800781 300.421875 126.902344 C 300.945312 127.007812 301.453125 127.160156 301.945312 127.363281 C 302.433594 127.566406 302.902344 127.816406 303.34375 128.113281 C 303.789062 128.40625 304.195312 128.742188 304.574219 129.117188 Z M 331.28125 155.828125 " fill-opacity="1" fill-rule="nonzero"/></g></g></g><g clip-path="url(#3fac7e20a0)"><g clip-path="url(#bd6193fc61)"><g clip-path="url(#c269d7fe35)"><path fill="#ffffff" d="M 224.714844 60.722656 L 198.007812 87.429688 C 197.285156 88.152344 196.644531 88.9375 196.078125 89.785156 C 195.511719 90.632812 195.035156 91.527344 194.648438 92.46875 C 194.257812 93.410156 193.964844 94.378906 193.765625 95.378906 C 193.566406 96.378906 193.46875 97.386719 193.46875 98.40625 C 193.46875 99.425781 193.566406 100.433594 193.765625 101.433594 C 193.964844 102.433594 194.257812 103.402344 194.648438 104.34375 C 195.035156 105.285156 195.511719 106.179688 196.078125 107.027344 C 196.644531 107.875 197.285156 108.660156 198.007812 109.382812 L 224.714844 136.089844 C 225.4375 136.8125 226.222656 137.453125 227.070312 138.019531 C 227.917969 138.585938 228.8125 139.0625 229.753906 139.453125 C 230.695312 139.839844 231.664062 140.136719 232.664062 140.335938 C 233.664062 140.53125 234.671875 140.632812 235.691406 140.632812 C 236.710938 140.632812 237.71875 140.535156 238.71875 140.335938 C 239.71875 140.136719 240.691406 139.84375 241.632812 139.453125 C 242.574219 139.0625 243.46875 138.585938 244.316406 138.023438 C 245.164062 137.457031 245.949219 136.8125 246.667969 136.09375 L 273.378906 109.382812 C 274.097656 108.664062 274.742188 107.878906 275.308594 107.03125 C 275.871094 106.183594 276.351562 105.289062 276.738281 104.347656 C 277.128906 103.402344 277.421875 102.433594 277.621094 101.433594 C 277.820312 100.433594 277.917969 99.425781 277.917969 98.40625 C 277.917969 97.386719 277.820312 96.378906 277.621094 95.378906 C 277.421875 94.378906 277.128906 93.40625 276.738281 92.464844 C 276.347656 91.523438 275.871094 90.628906 275.304688 89.78125 C 274.742188 88.933594 274.097656 88.148438 273.378906 87.429688 L 246.667969 60.71875 C 245.949219 60 245.164062 59.359375 244.316406 58.792969 C 243.46875 58.226562 242.574219 57.75 241.632812 57.359375 C 240.691406 56.972656 239.71875 56.675781 238.71875 56.480469 C 237.71875 56.28125 236.710938 56.179688 235.691406 56.179688 C 234.671875 56.179688 233.664062 56.28125 232.664062 56.480469 C 231.664062 56.679688 230.695312 56.972656 229.753906 57.359375 C 228.8125 57.75 227.917969 58.226562 227.070312 58.792969 C 226.222656 59.359375 225.4375 60 224.714844 60.722656 Z M 268.132812 92.675781 C 268.507812 93.050781 268.84375 93.460938 269.136719 93.90625 C 269.433594 94.347656 269.683594 94.8125 269.886719 95.304688 C 270.089844 95.796875 270.242188 96.304688 270.34375 96.824219 C 270.449219 97.347656 270.5 97.875 270.5 98.40625 C 270.5 98.9375 270.449219 99.464844 270.347656 99.988281 C 270.242188 100.507812 270.089844 101.015625 269.886719 101.507812 C 269.683594 102 269.433594 102.464844 269.136719 102.90625 C 268.84375 103.351562 268.507812 103.761719 268.132812 104.136719 L 241.421875 130.847656 C 241.046875 131.222656 240.636719 131.558594 240.191406 131.851562 C 239.75 132.148438 239.285156 132.398438 238.792969 132.601562 C 238.300781 132.804688 237.792969 132.957031 237.273438 133.058594 C 236.75 133.164062 236.222656 133.214844 235.691406 133.214844 C 235.160156 133.214844 234.632812 133.164062 234.113281 133.058594 C 233.589844 132.957031 233.082031 132.800781 232.589844 132.597656 C 232.101562 132.394531 231.632812 132.144531 231.191406 131.851562 C 230.75 131.554688 230.339844 131.21875 229.960938 130.84375 L 203.253906 104.136719 C 202.878906 103.757812 202.542969 103.351562 202.246094 102.90625 C 201.953125 102.464844 201.703125 101.996094 201.5 101.507812 C 201.296875 101.015625 201.144531 100.507812 201.039062 99.988281 C 200.9375 99.464844 200.882812 98.9375 200.882812 98.40625 C 200.882812 97.875 200.9375 97.347656 201.039062 96.828125 C 201.144531 96.304688 201.296875 95.796875 201.5 95.308594 C 201.703125 94.816406 201.953125 94.347656 202.246094 93.90625 C 202.542969 93.464844 202.878906 93.054688 203.253906 92.679688 L 229.964844 65.96875 C 230.339844 65.59375 230.75 65.257812 231.191406 64.960938 C 231.632812 64.667969 232.101562 64.417969 232.59375 64.214844 C 233.085938 64.011719 233.589844 63.855469 234.113281 63.753906 C 234.632812 63.648438 235.160156 63.597656 235.691406 63.597656 C 236.222656 63.597656 236.75 63.648438 237.273438 63.753906 C 237.792969 63.855469 238.300781 64.011719 238.792969 64.214844 C 239.285156 64.417969 239.75 64.664062 240.195312 64.960938 C 240.636719 65.253906 241.046875 65.589844 241.421875 65.964844 Z M 268.132812 92.675781 " fill-opacity="1" fill-rule="nonzero"/></g></g></g><g fill="#ff5f07" fill-opacity="1"><g transform="translate(38.460939, 305.8675)"><g><path d="M 38.046875 0 L 21.375 -54.34375 L 20.9375 -54.34375 C 21.539062 -43.289062 21.84375 -35.914062 21.84375 -32.21875 L 21.84375 0 L 8.71875 0 L 8.71875 -69.265625 L 28.71875 -69.265625 L 45.109375 -16.296875 L 45.390625 -16.296875 L 62.78125 -69.265625 L 82.765625 -69.265625 L 82.765625 0 L 69.078125 0 L 69.078125 -32.78125 C 69.078125 -34.332031 69.097656 -36.117188 69.140625 -38.140625 C 69.191406 -40.160156 69.40625 -45.53125 69.78125 -54.25 L 69.359375 -54.25 L 51.5 0 Z M 38.046875 0 "/></g></g></g><g fill="#ff5f07" fill-opacity="1"><g transform="translate(129.948894, 305.8675)"><g><path d="M 48.609375 0 L 8.71875 0 L 8.71875 -69.265625 L 48.609375 -69.265625 L 48.609375 -57.234375 L 23.40625 -57.234375 L 23.40625 -42.03125 L 46.859375 -42.03125 L 46.859375 -29.984375 L 23.40625 -29.984375 L 23.40625 -12.125 L 48.609375 -12.125 Z M 48.609375 0 "/></g></g></g><g fill="#ff5f07" fill-opacity="1"><g transform="translate(184.292077, 305.8675)"><g><path d="M 70.171875 0 L 51.5 0 L 21.375 -52.40625 L 20.9375 -52.40625 C 21.539062 -43.144531 21.84375 -36.539062 21.84375 -32.59375 L 21.84375 0 L 8.71875 0 L 8.71875 -69.265625 L 27.25 -69.265625 L 57.328125 -17.390625 L 57.65625 -17.390625 C 57.1875 -26.390625 56.953125 -32.753906 56.953125 -36.484375 L 56.953125 -69.265625 L 70.171875 -69.265625 Z M 70.171875 0 "/></g></g></g><g fill="#ff5f07" fill-opacity="1"><g transform="translate(263.177341, 305.8675)"><g><path d="M 65.09375 -69.265625 L 65.09375 -24.453125 C 65.09375 -19.328125 63.945312 -14.835938 61.65625 -10.984375 C 59.375 -7.140625 56.066406 -4.1875 51.734375 -2.125 C 47.410156 -0.0703125 42.296875 0.953125 36.390625 0.953125 C 27.484375 0.953125 20.566406 -1.328125 15.640625 -5.890625 C 10.710938 -10.460938 8.25 -16.710938 8.25 -24.640625 L 8.25 -69.265625 L 22.890625 -69.265625 L 22.890625 -26.859375 C 22.890625 -21.523438 23.960938 -17.609375 26.109375 -15.109375 C 28.253906 -12.617188 31.804688 -11.375 36.765625 -11.375 C 41.566406 -11.375 45.046875 -12.628906 47.203125 -15.140625 C 49.367188 -17.648438 50.453125 -21.585938 50.453125 -26.953125 L 50.453125 -69.265625 Z M 65.09375 -69.265625 "/></g></g></g></svg>