<svg xmlns="http://www.w3.org/2000/svg" xmlns:xlink="http://www.w3.org/1999/xlink" width="500" zoomAndPan="magnify" viewBox="0 0 375 374.999991" height="500" preserveAspectRatio="xMidYMid meet" version="1.0"><defs><g/><clipPath id="1fe8b6e5e8"><path d="M 10.175781 62.3125 L 364.925781 62.3125 L 364.925781 248.3125 L 10.175781 248.3125 Z M 10.175781 62.3125 " clip-rule="nonzero"/></clipPath><clipPath id="dd41c05145"><path d="M 130 156 L 216 156 L 216 241 L 130 241 Z M 130 156 " clip-rule="nonzero"/></clipPath><clipPath id="686c80337e"><path d="M 123.433594 197.320312 L 234.804688 85.949219 L 348.824219 199.972656 L 237.453125 311.339844 Z M 123.433594 197.320312 " clip-rule="nonzero"/></clipPath><clipPath id="79f1e3595c"><path d="M 123.433594 197.320312 L 234.804688 85.949219 L 348.824219 199.972656 L 237.453125 311.339844 Z M 123.433594 197.320312 " clip-rule="nonzero"/></clipPath><clipPath id="f825e927e6"><path d="M 194 219 L 279 219 L 279 304 L 194 304 Z M 194 219 " clip-rule="nonzero"/></clipPath><clipPath id="dfd64617bb"><path d="M 123.433594 197.320312 L 234.804688 85.949219 L 348.824219 199.972656 L 237.453125 311.339844 Z M 123.433594 197.320312 " clip-rule="nonzero"/></clipPath><clipPath id="f6a3b573f6"><path d="M 123.433594 197.320312 L 234.804688 85.949219 L 348.824219 199.972656 L 237.453125 311.339844 Z M 123.433594 197.320312 " clip-rule="nonzero"/></clipPath><clipPath id="db1ec4cfb8"><path d="M 256 156 L 342 156 L 342 242 L 256 242 Z M 256 156 " clip-rule="nonzero"/></clipPath><clipPath id="daa38c52e2"><path d="M 123.433594 197.320312 L 234.804688 85.949219 L 348.824219 199.972656 L 237.453125 311.339844 Z M 123.433594 197.320312 " clip-rule="nonzero"/></clipPath><clipPath id="a209923e61"><path d="M 123.433594 197.320312 L 234.804688 85.949219 L 348.824219 199.972656 L 237.453125 311.339844 Z M 123.433594 197.320312 " clip-rule="nonzero"/></clipPath><clipPath id="bbf59cd6a7"><path d="M 193 93 L 278 93 L 278 179 L 193 179 Z M 193 93 " clip-rule="nonzero"/></clipPath><clipPath id="66600b3b93"><path d="M 123.433594 197.320312 L 234.804688 85.949219 L 348.824219 199.972656 L 237.453125 311.339844 Z M 123.433594 197.320312 " clip-rule="nonzero"/></clipPath><clipPath id="48357d8b8d"><path d="M 123.433594 197.320312 L 234.804688 85.949219 L 348.824219 199.972656 L 237.453125 311.339844 Z M 123.433594 197.320312 " clip-rule="nonzero"/></clipPath><clipPath id="bb8fb006d5"><rect x="0" width="292" y="0" height="65"/></clipPath></defs><rect x="-37.5" width="450" fill="#ffffff" y="-37.499999" height="449.999989" fill-opacity="1"/><g clip-path="url(#1fe8b6e5e8)"><path fill="#ffffff" d="M 336.292969 283.046875 L 36.136719 282.992188 C 26.078125 282.992188 16.757812 278.304688 12.230469 270.753906 C 8.246094 264.121094 12.304688 257.640625 16.925781 252.640625 C 23.039062 249.21875 29.273438 247.300781 36.636719 246.328125 C 39.265625 172.09375 92.414062 109.234375 167.363281 97.917969 C 159.902344 88.195312 159.839844 77.097656 168.804688 69.378906 C 180.066406 59.679688 197.050781 60.039062 208.195312 70 C 216.753906 77.648438 216.453125 88.683594 209.191406 98.074219 C 283.457031 109.660156 337.292969 172.65625 338.859375 246.769531 C 347.535156 247.132812 355.730469 249.386719 360.914062 255.632812 C 366.335938 262.175781 365.429688 270.886719 358.269531 275.898438 C 352.792969 279.722656 345.277344 283.054688 336.300781 283.054688 Z M 199.710938 97.15625 C 204.027344 92.664062 208.792969 86.886719 206.46875 81.054688 C 203.683594 74.074219 195.285156 70.8125 188.917969 70.730469 C 182.152344 70.644531 175.113281 73.03125 170.804688 79.027344 C 167.304688 83.898438 170.441406 96.105469 177.171875 96.34375 Z M 330.835938 246.867188 C 330.203125 229.449219 327.988281 215.253906 322.5 200.59375 C 299.074219 135.914062 234.121094 95.148438 165.554688 106.261719 C 96.691406 117.421875 46.1875 177.988281 44.914062 246.71875 L 330.839844 246.859375 Z M 339.53125 274.839844 C 346.621094 274.828125 356.660156 269.921875 356.234375 264.101562 C 355.765625 257.664062 345.351562 254.667969 338.71875 254.667969 L 33.242188 254.738281 C 27.042969 254.738281 18.105469 259.609375 18.972656 265.554688 C 19.90625 271.980469 29.722656 275.023438 35.710938 275.035156 L 120.613281 275.210938 Z M 339.53125 274.839844 " fill-opacity="1" fill-rule="nonzero"/></g><path fill="#ff5f07" d="M 330.835938 246.867188 L 44.90625 246.726562 C 46.1875 177.988281 96.683594 117.421875 165.550781 106.265625 C 234.121094 95.15625 299.066406 135.921875 322.492188 200.601562 C 327.980469 215.261719 330.199219 229.457031 330.828125 246.875 Z M 113.527344 155.652344 C 114.722656 154.699219 115.449219 151.167969 114.765625 149.90625 C 114.078125 148.648438 110.011719 148.542969 108.832031 149.4375 C 66.875 181.351562 56.199219 235.984375 65.582031 234.035156 C 75.761719 231.921875 66.464844 193.085938 113.53125 155.644531 Z M 113.527344 155.652344 " fill-opacity="1" fill-rule="nonzero"/><path fill="#ff5f07" d="M 199.710938 97.15625 L 177.171875 96.34375 C 170.441406 96.101562 167.304688 83.898438 170.804688 79.027344 C 175.113281 73.03125 182.144531 70.644531 188.917969 70.730469 C 195.285156 70.804688 203.683594 74.066406 206.46875 81.054688 C 208.792969 86.886719 204.027344 92.664062 199.710938 97.15625 Z M 199.710938 97.15625 " fill-opacity="1" fill-rule="nonzero"/><path fill="#ffffff" d="M 113.527344 155.652344 C 66.457031 193.09375 75.753906 231.925781 65.574219 234.039062 C 56.199219 235.984375 66.875 181.351562 108.824219 149.445312 C 110.007812 148.542969 114.070312 148.65625 114.757812 149.914062 C 115.441406 151.175781 114.714844 154.707031 113.519531 155.660156 Z M 113.527344 155.652344 " fill-opacity="1" fill-rule="nonzero"/><path stroke-linecap="butt" transform="matrix(0.75, 0, 0, 0.75, 44.460866, 253.362435)" fill="none" stroke-linejoin="miter" d="M 0.0000958928 5.501129 L 380.489704 5.501129 " stroke="#ff5f07" stroke-width="11" stroke-opacity="1" stroke-miterlimit="4"/><g clip-path="url(#dd41c05145)"><g clip-path="url(#686c80337e)"><g clip-path="url(#79f1e3595c)"><path fill="#ffffff" d="M 162.226562 160.65625 L 135.515625 187.367188 C 134.796875 188.085938 134.152344 188.871094 133.585938 189.71875 C 133.023438 190.566406 132.542969 191.460938 132.15625 192.402344 C 131.765625 193.34375 131.472656 194.316406 131.273438 195.3125 C 131.074219 196.3125 130.976562 197.324219 130.976562 198.339844 C 130.976562 199.359375 131.074219 200.371094 131.273438 201.367188 C 131.472656 202.367188 131.765625 203.339844 132.152344 204.28125 C 132.542969 205.222656 133.019531 206.117188 133.585938 206.964844 C 134.152344 207.8125 134.792969 208.597656 135.511719 209.316406 L 162.222656 236.027344 C 162.945312 236.746094 163.726562 237.390625 164.574219 237.957031 C 165.425781 238.519531 166.320312 239 167.261719 239.386719 C 168.203125 239.777344 169.171875 240.070312 170.171875 240.269531 C 171.171875 240.46875 172.179688 240.566406 173.199219 240.566406 C 174.21875 240.566406 175.226562 240.46875 176.226562 240.269531 C 177.226562 240.070312 178.199219 239.777344 179.140625 239.386719 C 180.082031 239 180.976562 238.523438 181.824219 237.957031 C 182.671875 237.390625 183.457031 236.75 184.175781 236.027344 L 210.886719 209.316406 C 211.609375 208.597656 212.25 207.8125 212.816406 206.964844 C 213.378906 206.117188 213.859375 205.222656 214.246094 204.28125 C 214.636719 203.339844 214.929688 202.367188 215.128906 201.367188 C 215.328125 200.367188 215.425781 199.359375 215.425781 198.339844 C 215.425781 197.320312 215.328125 196.3125 215.128906 195.3125 C 214.929688 194.3125 214.636719 193.34375 214.246094 192.402344 C 213.855469 191.460938 213.378906 190.566406 212.8125 189.71875 C 212.246094 188.871094 211.605469 188.085938 210.886719 187.363281 L 184.175781 160.65625 C 183.457031 159.933594 182.671875 159.292969 181.824219 158.726562 C 180.976562 158.164062 180.082031 157.683594 179.140625 157.296875 C 178.199219 156.90625 177.226562 156.613281 176.226562 156.414062 C 175.230469 156.214844 174.21875 156.117188 173.199219 156.117188 C 172.183594 156.117188 171.171875 156.214844 170.171875 156.414062 C 169.175781 156.613281 168.203125 156.90625 167.261719 157.296875 C 166.320312 157.683594 165.425781 158.164062 164.578125 158.726562 C 163.730469 159.292969 162.945312 159.933594 162.226562 160.65625 Z M 205.636719 192.609375 C 206.015625 192.988281 206.351562 193.398438 206.644531 193.839844 C 206.941406 194.28125 207.1875 194.75 207.394531 195.242188 C 207.597656 195.730469 207.75 196.238281 207.851562 196.761719 C 207.957031 197.28125 208.007812 197.808594 208.007812 198.339844 C 208.007812 198.871094 207.957031 199.398438 207.855469 199.921875 C 207.75 200.441406 207.597656 200.949219 207.394531 201.441406 C 207.191406 201.933594 206.941406 202.398438 206.648438 202.84375 C 206.351562 203.285156 206.015625 203.695312 205.640625 204.070312 L 178.929688 230.78125 C 178.554688 231.15625 178.144531 231.492188 177.703125 231.789062 C 177.257812 232.082031 176.792969 232.332031 176.300781 232.535156 C 175.808594 232.738281 175.300781 232.890625 174.78125 232.996094 C 174.257812 233.097656 173.730469 233.148438 173.199219 233.148438 C 172.667969 233.148438 172.140625 233.097656 171.621094 232.996094 C 171.097656 232.890625 170.589844 232.738281 170.097656 232.535156 C 169.609375 232.332031 169.140625 232.082031 168.699219 231.785156 C 168.253906 231.492188 167.847656 231.15625 167.46875 230.78125 L 140.761719 204.070312 C 140.386719 203.695312 140.050781 203.285156 139.753906 202.84375 C 139.460938 202.398438 139.210938 201.933594 139.007812 201.441406 C 138.804688 200.949219 138.652344 200.441406 138.546875 199.921875 C 138.445312 199.398438 138.390625 198.875 138.390625 198.339844 C 138.390625 197.808594 138.445312 197.28125 138.546875 196.761719 C 138.652344 196.238281 138.804688 195.734375 139.007812 195.242188 C 139.210938 194.75 139.460938 194.285156 139.753906 193.839844 C 140.050781 193.398438 140.386719 192.988281 140.761719 192.613281 L 167.472656 165.902344 C 167.847656 165.527344 168.257812 165.191406 168.699219 164.894531 C 169.144531 164.601562 169.609375 164.351562 170.101562 164.148438 C 170.59375 163.945312 171.097656 163.792969 171.621094 163.6875 C 172.140625 163.585938 172.667969 163.53125 173.199219 163.53125 C 173.734375 163.53125 174.257812 163.585938 174.78125 163.6875 C 175.300781 163.792969 175.808594 163.945312 176.300781 164.148438 C 176.792969 164.351562 177.257812 164.601562 177.699219 164.894531 C 178.144531 165.191406 178.554688 165.527344 178.929688 165.902344 Z M 205.636719 192.609375 " fill-opacity="1" fill-rule="nonzero"/></g></g></g><g clip-path="url(#f825e927e6)"><g clip-path="url(#dfd64617bb)"><g clip-path="url(#f6a3b573f6)"><path fill="#ffffff" d="M 225.375 223.804688 L 198.664062 250.515625 C 197.945312 251.234375 197.300781 252.019531 196.734375 252.867188 C 196.171875 253.714844 195.691406 254.609375 195.304688 255.550781 C 194.914062 256.492188 194.621094 257.464844 194.421875 258.464844 C 194.222656 259.464844 194.125 260.472656 194.125 261.492188 C 194.125 262.511719 194.222656 263.519531 194.421875 264.519531 C 194.621094 265.519531 194.914062 266.488281 195.304688 267.429688 C 195.695312 268.375 196.171875 269.269531 196.738281 270.117188 C 197.300781 270.964844 197.945312 271.746094 198.664062 272.46875 L 225.375 299.179688 C 226.09375 299.898438 226.878906 300.539062 227.726562 301.105469 C 228.574219 301.671875 229.46875 302.148438 230.410156 302.539062 C 231.351562 302.925781 232.324219 303.222656 233.324219 303.417969 C 234.324219 303.617188 235.332031 303.71875 236.351562 303.71875 C 237.371094 303.71875 238.378906 303.617188 239.378906 303.417969 C 240.378906 303.21875 241.347656 302.925781 242.289062 302.535156 C 243.230469 302.148438 244.125 301.671875 244.972656 301.105469 C 245.820312 300.539062 246.605469 299.898438 247.328125 299.175781 L 274.035156 272.464844 C 274.757812 271.746094 275.398438 270.960938 275.964844 270.113281 C 276.53125 269.265625 277.007812 268.371094 277.394531 267.429688 C 277.785156 266.488281 278.078125 265.519531 278.277344 264.519531 C 278.476562 263.519531 278.574219 262.511719 278.574219 261.492188 C 278.574219 260.472656 278.476562 259.464844 278.277344 258.464844 C 278.078125 257.464844 277.785156 256.492188 277.394531 255.550781 C 277.007812 254.609375 276.53125 253.714844 275.964844 252.867188 C 275.398438 252.019531 274.757812 251.238281 274.035156 250.515625 L 247.328125 223.804688 C 246.605469 223.085938 245.820312 222.445312 244.972656 221.878906 C 244.125 221.3125 243.230469 220.835938 242.289062 220.445312 C 241.347656 220.054688 240.378906 219.761719 239.378906 219.5625 C 238.378906 219.363281 237.371094 219.265625 236.351562 219.265625 C 235.332031 219.265625 234.324219 219.363281 233.324219 219.5625 C 232.324219 219.761719 231.351562 220.054688 230.410156 220.445312 C 229.46875 220.832031 228.574219 221.3125 227.726562 221.875 C 226.878906 222.441406 226.09375 223.085938 225.375 223.804688 Z M 268.789062 255.761719 C 269.164062 256.140625 269.5 256.546875 269.796875 256.992188 C 270.089844 257.433594 270.339844 257.898438 270.542969 258.390625 C 270.746094 258.882812 270.898438 259.390625 271.003906 259.910156 C 271.105469 260.433594 271.160156 260.960938 271.160156 261.492188 C 271.160156 262.023438 271.105469 262.550781 271.003906 263.070312 C 270.898438 263.59375 270.746094 264.097656 270.542969 264.589844 C 270.339844 265.082031 270.089844 265.550781 269.796875 265.992188 C 269.5 266.433594 269.164062 266.84375 268.789062 267.21875 L 242.078125 293.929688 C 241.703125 294.304688 241.292969 294.640625 240.851562 294.9375 C 240.410156 295.230469 239.941406 295.480469 239.449219 295.683594 C 238.957031 295.886719 238.453125 296.039062 237.929688 296.144531 C 237.410156 296.246094 236.882812 296.300781 236.351562 296.300781 C 235.820312 296.300781 235.292969 296.25 234.769531 296.144531 C 234.25 296.042969 233.742188 295.886719 233.25 295.683594 C 232.757812 295.480469 232.292969 295.230469 231.847656 294.9375 C 231.40625 294.640625 230.996094 294.308594 230.621094 293.929688 L 203.910156 267.222656 C 203.535156 266.84375 203.199219 266.4375 202.90625 265.992188 C 202.609375 265.550781 202.359375 265.082031 202.15625 264.59375 C 201.953125 264.101562 201.800781 263.59375 201.699219 263.074219 C 201.59375 262.550781 201.542969 262.023438 201.542969 261.492188 C 201.542969 260.960938 201.59375 260.433594 201.695312 259.910156 C 201.800781 259.390625 201.953125 258.882812 202.15625 258.390625 C 202.359375 257.898438 202.609375 257.433594 202.90625 256.988281 C 203.199219 256.546875 203.535156 256.136719 203.910156 255.761719 L 230.621094 229.050781 C 230.996094 228.675781 231.40625 228.339844 231.847656 228.046875 C 232.292969 227.75 232.757812 227.5 233.25 227.296875 C 233.742188 227.09375 234.25 226.941406 234.769531 226.835938 C 235.292969 226.734375 235.820312 226.683594 236.351562 226.683594 C 236.882812 226.683594 237.410156 226.734375 237.929688 226.839844 C 238.453125 226.941406 238.960938 227.097656 239.453125 227.300781 C 239.941406 227.503906 240.410156 227.75 240.851562 228.046875 C 241.292969 228.34375 241.703125 228.675781 242.082031 229.054688 Z M 268.789062 255.761719 " fill-opacity="1" fill-rule="nonzero"/></g></g></g><g clip-path="url(#db1ec4cfb8)"><g clip-path="url(#daa38c52e2)"><g clip-path="url(#a209923e61)"><path fill="#ffffff" d="M 287.863281 161.3125 L 261.15625 188.023438 C 260.433594 188.742188 259.792969 189.527344 259.226562 190.375 C 258.664062 191.222656 258.183594 192.117188 257.796875 193.0625 C 257.40625 194.003906 257.113281 194.972656 256.914062 195.972656 C 256.714844 196.972656 256.617188 197.980469 256.617188 199 C 256.617188 200.019531 256.714844 201.027344 256.914062 202.027344 C 257.113281 203.027344 257.40625 203.996094 257.796875 204.9375 C 258.1875 205.878906 258.664062 206.777344 259.230469 207.625 C 259.796875 208.472656 260.4375 209.253906 261.15625 209.976562 L 287.867188 236.6875 C 288.585938 237.40625 289.371094 238.046875 290.21875 238.613281 C 291.066406 239.179688 291.960938 239.65625 292.902344 240.042969 C 293.84375 240.433594 294.816406 240.726562 295.816406 240.925781 C 296.8125 241.125 297.824219 241.222656 298.84375 241.222656 C 299.859375 241.222656 300.871094 241.125 301.871094 240.925781 C 302.867188 240.726562 303.839844 240.433594 304.78125 240.042969 C 305.722656 239.65625 306.617188 239.179688 307.464844 238.613281 C 308.3125 238.046875 309.097656 237.40625 309.816406 236.6875 L 336.527344 209.976562 C 337.246094 209.253906 337.890625 208.46875 338.457031 207.621094 C 339.019531 206.773438 339.5 205.878906 339.886719 204.9375 C 340.277344 203.996094 340.570312 203.027344 340.769531 202.027344 C 340.96875 201.027344 341.066406 200.019531 341.066406 199 C 341.066406 197.980469 340.96875 196.972656 340.769531 195.972656 C 340.570312 194.972656 340.277344 194 339.890625 193.058594 C 339.5 192.117188 339.023438 191.222656 338.457031 190.375 C 337.890625 189.527344 337.25 188.742188 336.53125 188.023438 L 309.820312 161.3125 C 309.097656 160.59375 308.316406 159.949219 307.464844 159.386719 C 306.617188 158.820312 305.722656 158.34375 304.78125 157.953125 C 303.839844 157.5625 302.871094 157.269531 301.871094 157.070312 C 300.871094 156.871094 299.863281 156.773438 298.84375 156.773438 C 297.824219 156.773438 296.816406 156.871094 295.816406 157.070312 C 294.816406 157.269531 293.84375 157.5625 292.902344 157.953125 C 291.960938 158.339844 291.066406 158.820312 290.21875 159.382812 C 289.371094 159.949219 288.585938 160.59375 287.863281 161.3125 Z M 331.28125 193.269531 C 331.65625 193.644531 331.992188 194.054688 332.289062 194.5 C 332.582031 194.941406 332.832031 195.40625 333.035156 195.898438 C 333.238281 196.390625 333.390625 196.898438 333.496094 197.417969 C 333.597656 197.941406 333.652344 198.46875 333.652344 199 C 333.652344 199.53125 333.597656 200.058594 333.496094 200.578125 C 333.390625 201.101562 333.238281 201.609375 333.035156 202.097656 C 332.832031 202.589844 332.582031 203.058594 332.289062 203.5 C 331.992188 203.941406 331.65625 204.351562 331.28125 204.726562 L 304.570312 231.4375 C 304.195312 231.8125 303.785156 232.148438 303.34375 232.445312 C 302.898438 232.738281 302.433594 232.988281 301.941406 233.191406 C 301.449219 233.394531 300.945312 233.546875 300.421875 233.652344 C 299.902344 233.757812 299.375 233.808594 298.84375 233.808594 C 298.308594 233.808594 297.785156 233.757812 297.261719 233.652344 C 296.742188 233.546875 296.234375 233.394531 295.742188 233.191406 C 295.25 232.988281 294.785156 232.738281 294.34375 232.445312 C 293.898438 232.148438 293.488281 231.8125 293.113281 231.4375 L 266.40625 204.730469 C 266.027344 204.351562 265.691406 203.945312 265.398438 203.5 C 265.101562 203.058594 264.855469 202.589844 264.648438 202.101562 C 264.445312 201.609375 264.292969 201.101562 264.191406 200.582031 C 264.085938 200.058594 264.035156 199.53125 264.035156 199 C 264.035156 198.46875 264.085938 197.941406 264.1875 197.417969 C 264.292969 196.898438 264.445312 196.390625 264.648438 195.898438 C 264.851562 195.40625 265.101562 194.941406 265.394531 194.5 C 265.691406 194.054688 266.027344 193.644531 266.402344 193.269531 L 293.113281 166.558594 C 293.488281 166.183594 293.898438 165.847656 294.339844 165.554688 C 294.785156 165.257812 295.25 165.007812 295.742188 164.804688 C 296.234375 164.601562 296.742188 164.449219 297.261719 164.347656 C 297.785156 164.242188 298.3125 164.191406 298.84375 164.191406 C 299.375 164.191406 299.902344 164.242188 300.421875 164.347656 C 300.945312 164.449219 301.453125 164.601562 301.945312 164.808594 C 302.433594 165.011719 302.902344 165.257812 303.34375 165.554688 C 303.789062 165.847656 304.195312 166.183594 304.574219 166.558594 Z M 331.28125 193.269531 " fill-opacity="1" fill-rule="nonzero"/></g></g></g><g clip-path="url(#bbf59cd6a7)"><g clip-path="url(#66600b3b93)"><g clip-path="url(#48357d8b8d)"><path fill="#ffffff" d="M 224.714844 98.164062 L 198.007812 124.875 C 197.285156 125.59375 196.644531 126.378906 196.078125 127.226562 C 195.511719 128.074219 195.035156 128.96875 194.648438 129.910156 C 194.257812 130.851562 193.964844 131.824219 193.765625 132.824219 C 193.566406 133.820312 193.46875 134.832031 193.46875 135.847656 C 193.46875 136.867188 193.566406 137.878906 193.765625 138.875 C 193.964844 139.875 194.257812 140.847656 194.648438 141.789062 C 195.035156 142.730469 195.511719 143.625 196.078125 144.472656 C 196.644531 145.320312 197.285156 146.105469 198.007812 146.824219 L 224.714844 173.535156 C 225.4375 174.253906 226.222656 174.898438 227.070312 175.460938 C 227.917969 176.027344 228.8125 176.503906 229.753906 176.894531 C 230.695312 177.285156 231.664062 177.578125 232.664062 177.777344 C 233.664062 177.976562 234.671875 178.074219 235.691406 178.074219 C 236.710938 178.074219 237.71875 177.976562 238.71875 177.777344 C 239.71875 177.578125 240.691406 177.285156 241.632812 176.894531 C 242.574219 176.507812 243.46875 176.03125 244.316406 175.464844 C 245.164062 174.898438 245.949219 174.257812 246.667969 173.535156 L 273.378906 146.828125 C 274.097656 146.105469 274.742188 145.320312 275.308594 144.472656 C 275.871094 143.625 276.351562 142.730469 276.738281 141.789062 C 277.128906 140.847656 277.421875 139.875 277.621094 138.875 C 277.820312 137.878906 277.917969 136.867188 277.917969 135.847656 C 277.917969 134.828125 277.820312 133.820312 277.621094 132.820312 C 277.421875 131.820312 277.128906 130.851562 276.738281 129.910156 C 276.347656 128.96875 275.871094 128.074219 275.304688 127.226562 C 274.742188 126.378906 274.097656 125.59375 273.378906 124.871094 L 246.667969 98.164062 C 245.949219 97.441406 245.164062 96.800781 244.316406 96.234375 C 243.46875 95.667969 242.574219 95.191406 241.632812 94.804688 C 240.691406 94.414062 239.71875 94.121094 238.71875 93.921875 C 237.71875 93.722656 236.710938 93.625 235.691406 93.625 C 234.671875 93.625 233.664062 93.722656 232.664062 93.921875 C 231.664062 94.121094 230.695312 94.414062 229.753906 94.804688 C 228.8125 95.191406 227.917969 95.671875 227.070312 96.234375 C 226.222656 96.800781 225.4375 97.445312 224.714844 98.164062 Z M 268.132812 130.117188 C 268.507812 130.496094 268.84375 130.90625 269.136719 131.347656 C 269.433594 131.789062 269.683594 132.257812 269.886719 132.75 C 270.089844 133.238281 270.242188 133.746094 270.34375 134.269531 C 270.449219 134.789062 270.5 135.316406 270.5 135.847656 C 270.5 136.378906 270.449219 136.90625 270.347656 137.429688 C 270.242188 137.949219 270.089844 138.457031 269.886719 138.949219 C 269.683594 139.441406 269.433594 139.90625 269.136719 140.351562 C 268.84375 140.792969 268.507812 141.203125 268.132812 141.578125 L 241.421875 168.289062 C 241.046875 168.664062 240.636719 169 240.191406 169.296875 C 239.75 169.589844 239.285156 169.839844 238.792969 170.042969 C 238.300781 170.246094 237.792969 170.398438 237.273438 170.503906 C 236.75 170.605469 236.222656 170.65625 235.691406 170.65625 C 235.160156 170.65625 234.632812 170.605469 234.113281 170.503906 C 233.589844 170.398438 233.082031 170.246094 232.589844 170.042969 C 232.101562 169.839844 231.632812 169.589844 231.191406 169.292969 C 230.75 169 230.339844 168.664062 229.960938 168.289062 L 203.253906 141.578125 C 202.878906 141.203125 202.542969 140.792969 202.246094 140.351562 C 201.953125 139.90625 201.703125 139.441406 201.5 138.949219 C 201.296875 138.457031 201.144531 137.953125 201.039062 137.429688 C 200.9375 136.90625 200.882812 136.382812 200.882812 135.847656 C 200.882812 135.316406 200.9375 134.792969 201.039062 134.269531 C 201.144531 133.746094 201.296875 133.242188 201.5 132.75 C 201.703125 132.257812 201.953125 131.792969 202.246094 131.347656 C 202.542969 130.90625 202.878906 130.496094 203.253906 130.121094 L 229.964844 103.410156 C 230.339844 103.035156 230.75 102.699219 231.191406 102.40625 C 231.632812 102.109375 232.101562 101.859375 232.59375 101.65625 C 233.085938 101.453125 233.589844 101.300781 234.113281 101.195312 C 234.632812 101.09375 235.160156 101.039062 235.691406 101.039062 C 236.222656 101.039062 236.75 101.09375 237.273438 101.195312 C 237.792969 101.300781 238.300781 101.453125 238.792969 101.65625 C 239.285156 101.859375 239.75 102.109375 240.195312 102.402344 C 240.636719 102.699219 241.046875 103.035156 241.421875 103.410156 Z M 268.132812 130.117188 " fill-opacity="1" fill-rule="nonzero"/></g></g></g><g transform="matrix(1, 0, 0, 1, 40, 252)"><g clip-path="url(#bb8fb006d5)"><g fill="#ff5f07" fill-opacity="1"><g transform="translate(0.769104, 50.56727)"><g><path d="M 4.1875 0 L 4.1875 -33.3125 L 11.25 -33.3125 L 11.25 -5.828125 L 24.765625 -5.828125 L 24.765625 0 Z M 4.1875 0 "/></g></g></g><g fill="#ff5f07" fill-opacity="1"><g transform="translate(27.131754, 50.56727)"><g><path d="M 24.59375 0 L 22.171875 -7.9375 L 10.03125 -7.9375 L 7.609375 0 L 0 0 L 11.765625 -33.453125 L 20.390625 -33.453125 L 32.203125 0 Z M 20.484375 -13.859375 C 18.253906 -21.046875 17 -25.109375 16.71875 -26.046875 C 16.4375 -26.984375 16.234375 -27.726562 16.109375 -28.28125 C 15.609375 -26.332031 14.175781 -21.523438 11.8125 -13.859375 Z M 20.484375 -13.859375 "/></g></g></g><g fill="#ff5f07" fill-opacity="1"><g transform="translate(59.327454, 50.56727)"><g><path d="M 33.75 0 L 24.765625 0 L 10.28125 -25.203125 L 10.078125 -25.203125 C 10.359375 -20.753906 10.5 -17.578125 10.5 -15.671875 L 10.5 0 L 4.1875 0 L 4.1875 -33.3125 L 13.109375 -33.3125 L 27.578125 -8.359375 L 27.734375 -8.359375 C 27.503906 -12.691406 27.390625 -15.753906 27.390625 -17.546875 L 27.390625 -33.3125 L 33.75 -33.3125 Z M 33.75 0 "/></g></g></g><g fill="#ff5f07" fill-opacity="1"><g transform="translate(97.265063, 50.56727)"><g><path d="M 18.34375 -27.921875 C 15.6875 -27.921875 13.628906 -26.921875 12.171875 -24.921875 C 10.710938 -22.921875 9.984375 -20.132812 9.984375 -16.5625 C 9.984375 -9.132812 12.769531 -5.421875 18.34375 -5.421875 C 20.6875 -5.421875 23.519531 -6.003906 26.84375 -7.171875 L 26.84375 -1.25 C 24.113281 -0.113281 21.0625 0.453125 17.6875 0.453125 C 12.84375 0.453125 9.132812 -1.015625 6.5625 -3.953125 C 4 -6.890625 2.71875 -11.109375 2.71875 -16.609375 C 2.71875 -20.078125 3.347656 -23.113281 4.609375 -25.71875 C 5.867188 -28.320312 7.675781 -30.316406 10.03125 -31.703125 C 12.394531 -33.097656 15.164062 -33.796875 18.34375 -33.796875 C 21.582031 -33.796875 24.832031 -33.015625 28.09375 -31.453125 L 25.8125 -25.703125 C 24.570312 -26.296875 23.320312 -26.8125 22.0625 -27.25 C 20.800781 -27.695312 19.5625 -27.921875 18.34375 -27.921875 Z M 18.34375 -27.921875 "/></g></g></g><g fill="#ff5f07" fill-opacity="1"><g transform="translate(126.999946, 50.56727)"><g><path d="M 31.5 0 L 24.453125 0 L 24.453125 -14.375 L 11.25 -14.375 L 11.25 0 L 4.1875 0 L 4.1875 -33.3125 L 11.25 -33.3125 L 11.25 -20.265625 L 24.453125 -20.265625 L 24.453125 -33.3125 L 31.5 -33.3125 Z M 31.5 0 "/></g></g></g><g fill="#ff5f07" fill-opacity="1"><g transform="translate(162.70459, 50.56727)"><g><path d="M 34.4375 -16.703125 C 34.4375 -11.191406 33.066406 -6.953125 30.328125 -3.984375 C 27.597656 -1.023438 23.679688 0.453125 18.578125 0.453125 C 13.472656 0.453125 9.550781 -1.023438 6.8125 -3.984375 C 4.082031 -6.953125 2.71875 -11.207031 2.71875 -16.75 C 2.71875 -22.289062 4.085938 -26.523438 6.828125 -29.453125 C 9.566406 -32.378906 13.5 -33.84375 18.625 -33.84375 C 23.738281 -33.84375 27.648438 -32.367188 30.359375 -29.421875 C 33.078125 -26.472656 34.4375 -22.234375 34.4375 -16.703125 Z M 10.125 -16.703125 C 10.125 -12.984375 10.828125 -10.179688 12.234375 -8.296875 C 13.648438 -6.410156 15.765625 -5.46875 18.578125 -5.46875 C 24.210938 -5.46875 27.03125 -9.210938 27.03125 -16.703125 C 27.03125 -24.210938 24.226562 -27.96875 18.625 -27.96875 C 15.8125 -27.96875 13.691406 -27.019531 12.265625 -25.125 C 10.835938 -23.226562 10.125 -20.421875 10.125 -16.703125 Z M 10.125 -16.703125 "/></g></g></g><g fill="#ff5f07" fill-opacity="1"><g transform="translate(199.844711, 50.56727)"><g><path d="M 33.75 0 L 24.765625 0 L 10.28125 -25.203125 L 10.078125 -25.203125 C 10.359375 -20.753906 10.5 -17.578125 10.5 -15.671875 L 10.5 0 L 4.1875 0 L 4.1875 -33.3125 L 13.109375 -33.3125 L 27.578125 -8.359375 L 27.734375 -8.359375 C 27.503906 -12.691406 27.390625 -15.753906 27.390625 -17.546875 L 27.390625 -33.3125 L 33.75 -33.3125 Z M 33.75 0 "/></g></g></g><g fill="#ff5f07" fill-opacity="1"><g transform="translate(237.78232, 50.56727)"><g><path d="M 23.375 0 L 4.1875 0 L 4.1875 -33.3125 L 23.375 -33.3125 L 23.375 -27.53125 L 11.25 -27.53125 L 11.25 -20.21875 L 22.53125 -20.21875 L 22.53125 -14.421875 L 11.25 -14.421875 L 11.25 -5.828125 L 23.375 -5.828125 Z M 23.375 0 "/></g></g></g><g fill="#ff5f07" fill-opacity="1"><g transform="translate(263.917117, 50.56727)"><g><path d="M 17.046875 0 L 9.984375 0 L 9.984375 -27.4375 L 0.9375 -27.4375 L 0.9375 -33.3125 L 26.09375 -33.3125 L 26.09375 -27.4375 L 17.046875 -27.4375 Z M 17.046875 0 "/></g></g></g></g></g></svg>